<svg version="1.2" baseProfile="tiny" xmlns="http://www.w3.org/2000/svg" viewBox="0 0 122.9 74.5" overflow="visible" xml:space="preserve"><path style="fill:#808080;" d="M85.6 74c-20.3 0-36.7-16.5-36.7-36.7S65.4.5 85.6.5s36.7 16.5 36.7 36.7S105.9 74 85.6 74zm0-64.3C70.4 9.7 58.1 22 58.1 37.2s12.3 27.5 27.5 27.5 27.5-12.3 27.5-27.5c.1-15.1-12.3-27.5-27.5-27.5zm-7 35.7V20.5c0-1.1.9-2 2-2H85a2 2 0 0 1 2 2V37h15.1a2 2 0 0 1 2 2v4.4a2 2 0 0 1-2 2H78.6z"/><path style="fill:#808080;" d="M85.6 1c20 0 36.2 16.2 36.2 36.2s-16.2 36.2-36.2 36.2-36.2-16.2-36.2-36.2S65.6 1 85.6 1m0 64.2c15.5 0 28-12.5 28-28s-12.5-28-28-28-28 12.5-28 28 12.6 28 28 28M85.1 19c.8 0 1.5.7 1.5 1.5v17.1h15.6c.8 0 1.5.7 1.5 1.5v4.4c0 .8-.7 1.5-1.5 1.5h-23V20.5c0-.8.7-1.5 1.5-1.5h4.4m.5-19C65.1 0 48.4 16.7 48.4 37.2s16.7 37.2 37.2 37.2 37.2-16.7 37.2-37.2S106.2 0 85.6 0zm0 64.2c-14.9 0-27-12.1-27-27s12.1-27 27-27 27 12.1 27 27-12.1 27-27 27zM85.1 18h-4.4c-1.4 0-2.5 1.1-2.5 2.5v25.4h24c1.4 0 2.5-1.1 2.5-2.5V39c0-1.4-1.1-2.5-2.5-2.5H87.5v-16c0-1.4-1.1-2.5-2.4-2.5z"/></svg>